# xmcd
#
# Track frame offsets:
# 150
# 15283
# 31106
# 47761
# 62313
# 82023
# 104604
# 119709
# 133725
# 148315
# 160296
# 173024
#
# Disc length: 2562 seconds
#
#
# Revision: 0
# Processed by: cddbd v1.5.2PL0 Copyright (c) Steve Scherf et al.
# Submitted via: FreeRIP 2.941 
#
DISCID=a00a000c
DTITLE=Sugar Bayou - Nowhere But Gone
DYEAR=2003
DGENRE=Country
TTITLE0=Firefly
TTITLE1=Dancing Shoes
TTITLE2=In the Middle of Your Heart
TTITLE3=Nowhere But Gone
TTITLE4=Sometimes We're Kids
TTITLE5=To Have and To Hold
TTITLE6=Carolina Wind
TTITLE7=Heartbeat Away
TTITLE8=The Dream
TTITLE9=Sometimes
TTITLE10=Panthers
TTITLE11=With Love Again
EXTD=www.sugarbayouband.com
EXTT0=
EXTT1=
EXTT2=
EXTT3=
EXTT4=
EXTT5=
EXTT6=
EXTT7=
EXTT8=
EXTT9=
EXTT10=
EXTT11=
PLAYORDER=
